<svg width="24" height="24" viewBox="0 0 24 24" fill="none" xmlns="http://www.w3.org/2000/svg">
  <circle cx="12" cy="12" r="10" fill="#25D366"/>
  <path d="M9.5 7.5C9.3 7.1 9 7 8.7 7C8.4 7 8 7 7.6 7.5C7.2 7.9 6.5 8.6 6.5 9.9C6.5 11.1 7.3 12.2 7.4 12.3C7.5 12.4 9.1 14.9 11.7 15.9C13 16.4 13.6 16.5 14.1 16.5C14.6 16.5 15.4 16.2 15.7 15.8C16 15.4 16.2 14.9 16.3 14.5C16.4 14.1 16.3 13.8 16.1 13.6C15.9 13.4 15.3 13.1 14.7 12.9C14.1 12.7 13.6 12.6 13.4 12.7C13.2 12.8 12.9 13.2 12.7 13.5C12.5 13.8 12.3 14 12 13.9C11.7 13.8 10.9 13.5 10.2 12.8C9.7 12.3 9.4 11.7 9.2 11.4C9 11.1 9.1 10.9 9.2 10.7C9.3 10.5 9.4 10.3 9.5 10.1C9.6 9.9 9.6 9.7 9.5 9.5C9.4 9.3 8.9 8.1 8.7 7.8L9.5 7.5Z" fill="white"/>
</svg>
